<svg width="32" height="32" viewBox="0 0 32 32" xmlns="http://www.w3.org/2000/svg">
  <rect width="32" height="32" rx="6" ry="6" fill="#FEDD2C"/>
  
  <g transform="translate(8,6) scale(1.5)">
    <path d="M0 0.384H4.512L5.328 5.304V14.064H0.864V4.944L0 0.384ZM11.856 0.192001V4.032C11.424 3.936 10.992 3.864 10.56 3.816C10.144 3.768 9.76 3.744 9.408 3.744C8.64 3.744 7.944 3.904 7.32 4.224C6.712 4.528 6.224 5.016 5.856 5.688C5.504 6.36 5.328 7.232 5.328 8.304L4.44 7.2C4.552 6.224 4.736 5.304 4.992 4.44C5.248 3.576 5.6 2.816 6.048 2.16C6.496 1.488 7.048 0.96 7.704 0.576C8.376 0.192 9.184 0 10.128 0C10.4 0 10.688 0.0160007 10.992 0.0480003C11.296 0.0800009 11.584 0.128001 11.856 0.192001Z" fill="#1C1C1C"/>
  </g>
</svg>